<?xml version="1.0" encoding="utf-8"?>
<!-- Generator: Adobe Illustrator 19.0.0, SVG Export Plug-In . SVG Version: 6.00 Build 0)  -->
<svg version="1.1" id="Calque_1" focusable="false" xmlns="http://www.w3.org/2000/svg" xmlns:xlink="http://www.w3.org/1999/xlink"
	 x="0px" y="0px" viewBox="-251 245 496 512" style="enable-background:new -251 245 496 512;" xml:space="preserve">
<style type="text/css">
	.st0{fill:#FFFFFF;}
</style>
<path class="st0" d="M-119.5,462.5l-76.4-117.4c47.6-59.2,119-91.8,192-92.1c42.3-0.3,85.5,10.5,124.8,33.2
	c43.4,25.2,76.4,61.4,97.4,103L13,378.4C-45.1,375-100.4,407.7-119.5,462.5z M-86.6,501c0,46.2,37.4,83.6,83.6,83.6
	s83.6-37.4,83.6-83.6S43.2,417.4-3,417.4S-86.6,454.7-86.6,501z M228.3,411.8L88.6,419c37.9,44.3,38.5,108.2,6.6,157.2L-16.9,748.6
	c46.5,2.5,94.4-7.7,137.8-32.9C228.3,653.7,271.8,523.7,228.3,411.8L228.3,411.8z M-117.3,548.6l-93.3-183.5
	c-25.5,39-40.4,85.8-40.4,135.9c0,124,90.8,226.7,209.5,244.9l63.7-124.8C-35.4,631.9-91,600.3-117.3,548.6L-117.3,548.6z"/>
</svg>
