<?xml version="1.0" encoding="utf-8"?>
<!-- Generator: Adobe Illustrator 19.0.0, SVG Export Plug-In . SVG Version: 6.00 Build 0)  -->
<svg version="1.1" id="Calque_1" xmlns="http://www.w3.org/2000/svg" xmlns:xlink="http://www.w3.org/1999/xlink" x="0px" y="0px"
	 viewBox="-374 376 250 250" style="enable-background:new -374 376 250 250;" xml:space="preserve">
<style type="text/css">
	.st0{fill:#FFFFFF;stroke:#FFFFFF;stroke-width:2;stroke-miterlimit:10;}
</style>
<path class="st0" d="M-149,578.5l-100,30l-100-30V421c0-13.8,11.2-25,25-25h150c13.8,0,25,11.2,25,25V578.5z"/>
<path d="M-234,416h15v115h-15V416z M-164,451v-20c0-8.3-6.7-15-15-15h-15c-8.3,0-15,6.7-15,15v85c0,8.3,6.7,15,15,15h15
	c8.3,0,15-6.7,15-15v-20h-15v20h-15v-85h15v20H-164z M-289,416v115h15v-50h15c8.3,0,15-6.7,15-15v-35c0-8.3-6.7-15-15-15H-289z
	 M-274,466v-35h15v35H-274z M-334,431v85c0,8.3,6.7,15,15,15h20v-15h-20v-35h15v-15h-15v-35h20v-15h-20
	C-327.3,416-334,422.7-334,431z"/>
<g>
	<path d="M-334,546v20c0,2.8,2.2,5,5,5h20c2.8,0,5-2.2,5-5v-10h-10v5h5v3.8c0,0.7-0.6,1.2-1.2,1.2h-17.5c-0.7,0-1.2-0.6-1.2-1.2
		v-17.5c0-0.7,0.6-1.2,1.2-1.2h17.5c0.7,0,1.2,0.6,1.2,1.2v3.8h5v-5c0-2.8-2.2-5-5-5h-20C-331.8,541-334,543.2-334,546z M-189,541
		c-2.8,0-5,2.2-5,5v7.5c0,2.8,2.2,5,5,5h18.8c0.7,0,1.2,0.6,1.2,1.2v5c0,0.7-0.6,1.2-1.2,1.2h-17.5c-0.7,0-1.2-0.6-1.2-1.2v-1.2h-5
		v2.5c0,2.8,2.2,5,5,5h20c2.8,0,5-2.2,5-5v-7.5c0-2.8-2.2-5-5-5h-18.8c-0.7,0-1.2-0.6-1.2-1.2v-5c0-0.7,0.6-1.2,1.2-1.2h17.5
		c0.7,0,1.2,0.6,1.2,1.2v1.2h5V546c0-2.8-2.2-5-5-5H-189z M-244,561l-10-20h-5v30h5v-20l7.5,15h5l7.5-15v20h5v-30h-5L-244,561z
		 M-224,541v5v20v5h5h20v-5h-20v-7.5h10v-5h-10V546h20v-5h-20H-224z M-279,541h-5l-15,30h5l2.5-5h20l2.5,5h5L-279,541z M-289,561
		l7.5-15l7.5,15H-289z"/>
</g>
</svg>
