<?xml version="1.0" encoding="utf-8"?>
<!-- Generator: Adobe Illustrator 19.0.0, SVG Export Plug-In . SVG Version: 6.00 Build 0)  -->
<svg version="1.1" id="Calque_1" focusable="false" xmlns="http://www.w3.org/2000/svg" xmlns:xlink="http://www.w3.org/1999/xlink"
	 x="0px" y="0px" viewBox="-243 245 512 512" style="enable-background:new -243 245 512 512;" xml:space="preserve">
<style type="text/css">
	.st0{fill:#FFFFFF;}
</style>
<path class="st0" d="M260.5,486.5c-0.1-1.6-0.2-3.1-0.2-4.7v-0.1l-0.4-4.7v-0.1c-1.3-13.9-3.7-27.7-7.3-41.1c0-0.1,0-0.1-0.1-0.2
	l-1.1-4c-0.1-0.2-0.1-0.5-0.2-0.6c-0.4-1.2-0.7-2.5-1.1-3.7c-0.1-0.2-0.1-0.6-0.2-0.8c-0.4-1.2-0.7-2.4-1.1-3.5
	c-0.1-0.4-0.2-0.6-0.4-1c-0.4-1.2-0.7-2.3-1.2-3.5l-0.4-1.1c-0.4-1.1-0.8-2.3-1.2-3.4c-0.1-0.3-0.2-0.7-0.4-1
	c-0.5-1.1-0.8-2.3-1.3-3.4c-0.1-0.2-0.2-0.6-0.4-0.8c-0.5-1.2-1-2.3-1.4-3.5c0-0.1-0.1-0.2-0.1-0.4c-1.6-3.8-3.2-7.7-5-11.4
	l-0.4-0.7c-0.5-1-0.8-1.8-1.3-2.6c-0.2-0.5-0.5-1.1-0.7-1.6c-0.4-0.8-0.8-1.6-1.2-2.4c-0.4-0.6-0.6-1.2-1-1.8s-0.8-1.4-1.2-2.3
	c-0.4-0.6-0.7-1.3-1.1-1.9c-0.4-0.6-0.8-1.4-1.2-2.2c-0.4-0.7-0.8-1.4-1.2-2c-0.4-0.7-0.8-1.3-1.2-2s-0.8-1.3-1.2-2
	c-0.4-0.7-0.8-1.3-1.2-1.9s-0.8-1.4-1.3-2.2c-0.4-0.6-0.8-1.2-1.2-1.8l-1.4-2.1c-0.4-0.6-0.8-1.2-1.2-1.8c-0.5-0.7-1.1-1.6-1.6-2.3
	c-0.4-0.5-0.7-1.1-1.1-1.6l-1.8-2.5c-0.4-0.5-0.6-0.8-1-1.3c-1-1.3-1.8-2.5-2.8-3.7c-7.2-9.4-15-18.3-23.5-26.6
	c-5.7-6-11.8-11.5-18.3-16.7c-4-3.5-8.2-6.7-12.5-9.8c-7.7-5.8-16-10.8-24.6-15.1c-2.4-1.3-4.8-2.5-7.2-3.7
	c-17.7-8.6-36.3-15.2-55.4-19.6c-1.9-0.4-3.8-0.8-5.6-1.2h-0.1c-1-0.1-1.8-0.4-2.8-0.5c-12.5-2.4-25.2-3.7-38-4H12.1
	c-15.3,0.2-30.5,1.9-45.5,5c-33.6,7.1-63.2,21.2-82.9,39c-1.1,1-1.9,1.7-2.4,2.2l-0.5,0.5h0.1l-0.1,0.1l0.1-0.1
	c0.1,0,0.1-0.1,0.1-0.1l0,0l-0.1,0.1c0.1-0.1,0.1-0.1,0.2-0.1c14.6-8.8,34.9-16,49.4-19.6l5.9-1.4c0.4-0.1,0.8-0.1,1.2-0.2
	c1.7-0.4,3.4-0.7,5.2-1.1c0.2,0,0.6-0.1,0.8-0.1c64.2-11.7,132.6,7.5,180.2,53c10.3,9.8,19.3,20.8,26.9,32.8
	c30.4,49.2,27.5,111.1,3.8,147.6c-34.4,53-111.4,71.3-159,24.8c-16-15.5-25.2-36.7-25.6-59c-0.2-10.7,2-21.2,6.2-31
	c1.7-3.8,13.1-25.7,18.2-24.6c-13.1-2.8-37.6,2.6-54.7,28.2c-15.4,22.9-14.5,58.2-5,83.3c-6-12.4-10.1-25.6-12.1-39.2
	c-12.2-82.6,43.3-153,94.3-170.5c-27.5-24-96.5-22.3-147.7,15.4c-29.9,22-51.2,53.2-62.5,90.4c1.7-20.9,9.6-52.1,25.8-83.9
	c-17.2,8.9-39,37-49.8,62.9c-15.6,37.4-21,82.2-16.1,124.8c0.4,3.2,0.7,6.4,1.1,9.6c19.9,117.1,122,206.4,244.8,206.4
	C149.8,748.4,261,637.2,261,500C260.9,495.5,260.8,490.9,260.5,486.5z"/>
</svg>
