<?xml version="1.0" encoding="utf-8"?>
<!-- Generator: Adobe Illustrator 19.0.0, SVG Export Plug-In . SVG Version: 6.00 Build 0)  -->
<svg version="1.1" id="Calque_1" focusable="false" xmlns="http://www.w3.org/2000/svg" xmlns:xlink="http://www.w3.org/1999/xlink"
	 x="0px" y="0px" viewBox="-307 245 384 512" style="enable-background:new -307 245 384 512;" xml:space="preserve">
<style type="text/css">
	.st0{fill:#FFFFFF;}
</style>
<path class="st0" d="M-120.9,245.1C-226,248.2-307,339.9-307,445V709c0,14.3,17.2,21.4,27.3,11.3l24.9-18.5c6.7-4.9,16-4,21.5,2.2
	l43,48.4c6.2,6.2,16.4,6.2,22.6,0l40.7-45.9c6.4-7.2,17.6-7.2,23.9,0l40.7,45.9c6.2,6.2,16.4,6.2,22.6,0l43-48.4
	c5.5-6.2,14.9-7.2,21.5-2.2l24.9,18.5C59.8,730.4,77,723.2,77,709V437C77,329-12.2,241.8-120.9,245.1z M-179,469
	c-17.7,0-32-14.3-32-32s14.3-32,32-32s32,14.3,32,32S-161.3,469-179,469z M-51,469c-17.7,0-32-14.3-32-32s14.3-32,32-32
	s32,14.3,32,32S-33.3,469-51,469z"/>
</svg>
