<?xml version="1.0" encoding="utf-8"?>
<!-- Generator: Adobe Illustrator 19.0.0, SVG Export Plug-In . SVG Version: 6.00 Build 0)  -->
<svg version="1.1" id="Calque_1" xmlns="http://www.w3.org/2000/svg" xmlns:xlink="http://www.w3.org/1999/xlink" x="0px" y="0px"
	 viewBox="-475 477 48 48" style="enable-background:new -475 477 48 48;" xml:space="preserve">
<style type="text/css">
	.st0{fill:#FFFFFF;}
</style>
<path class="st0" d="M-449.3,505h-7.4c-1.3,0-2.3,1-2.3,2.2v7.5c0,1.2,1,2.2,2.3,2.2h7.4c1.3,0,2.3-1,2.3-2.2v-7.5
	C-447,506-448,505-449.3,505z M-450,513.1c0,0.5-0.4,0.9-0.9,0.9l0,0v0h-4.2v0l0,0c-0.5,0-0.9-0.4-0.9-0.9v-4.3v0
	c0-0.5,0.4-0.9,0.9-0.9h0h4.2h0c0.5,0,0.9,0.4,0.9,0.9V513.1z M-447.3,485h-7.4c-1.3,0-2.3,1-2.3,2.2v7.5c0,1.2,1,2.2,2.3,2.2h7.4
	c1.3,0,2.3-1,2.3-2.2v-7.5C-445,486-446,485-447.3,485z M-448,493.1c0,0.5-0.4,0.9-0.9,0.9l0,0v0h-4.2v0l0,0c-0.5,0-0.9-0.4-0.9-0.9
	v-4.3v0c0-0.5,0.4-0.9,0.9-0.9h0h4.2h0c0.5,0,0.9,0.4,0.9,0.9V493.1z M-430,517h-3v-9h-2.1h0c-0.5,0-0.9,0.4-0.9,0.9v0v8.1h-3v-9h-2
	h0c-0.5,0-1,0.4-1,0.9v0v8.1h-3v-9.8c0-1.2,1-2.2,2.3-2.2h12.7V517L-430,517z M-461,517h-8.7c-1.3,0-2.3-1-2.3-2.2v-7.5
	c0-1.2,1-2.2,2.3-2.2h8.7v3l-7.1,0h0c-0.5,0-0.9,0.4-0.9,0.9v0v4.3c0,0.5,0.4,0.9,0.9,0.9l0,0v0h7.1V517z M-430,487.2v12.5
	c0,1.2-1,2.2-2.3,2.2h-9.7v-3h9v-10.1c0-0.5-0.4-0.9-0.9-0.9h0h-4.2h0c-0.5,0-0.9,0.4-0.9,0.9v0v4.3c0,0.5,0.4,0.9,0.9,0.9l0,0v0
	h3.1v3h-4.7c-1.3,0-2.3-1-2.3-2.2v-7.5c0-1.2,1-2.2,2.3-2.2h7.4C-431,485-430,486-430,487.2z M-460,487.2v12.5c0,1.2-1,2.2-2.3,2.2
	h-9.7v-3h9v-10.1c0-0.5-0.4-0.9-0.9-0.9h0h-4.2h0c-0.5,0-0.9,0.4-0.9,0.9v0v4.3c0,0.5,0.4,0.9,0.9,0.9l0,0v0h3.1v3h-4.7
	c-1.3,0-2.3-1-2.3-2.2v-7.5c0-1.2,1-2.2,2.3-2.2h7.4C-461,485-460,486-460,487.2z"/>
</svg>
