<?xml version="1.0" encoding="utf-8"?>
<!-- Generator: Adobe Illustrator 19.0.0, SVG Export Plug-In . SVG Version: 6.00 Build 0)  -->
<svg version="1.1" id="Calque_1" focusable="false" xmlns="http://www.w3.org/2000/svg" xmlns:xlink="http://www.w3.org/1999/xlink"
	 x="0px" y="0px" viewBox="-243 245 512 512" style="enable-background:new -243 245 512 512;" xml:space="preserve">
<style type="text/css">
	.st0{fill:#FFFFFF;}
</style>
<path class="st0" d="M240,404.7c10.9-24.6,21.4-60.4,21.4-87.9c0-72.7-79.6-98.4-209.7-38.6c-107.6-7.2-211.2,73.7-237.1,186.5
	c30.9-34.9,78.3-82.3,122-101.2C-117.6,411.9-163.9,473-199,536.7c-20.7,37.9-44,99.2-44,145c0,98.6,92.9,86.5,180.3,42
	c31.4,15.4,66.6,15.6,101.7,15.6c97.1,0,184.2-54.3,216.8-146H134.9c-52.5,88.6-196.8,53-196.8-47.4h328.8
	C273.3,502.3,265.2,450.2,240,404.7L240,404.7z M-178.4,591.9c17.7,51.1,53.7,95.9,100.3,123.3
	C-166.9,764.1-251.4,744.3-178.4,591.9z M-62.5,483c2-55.2,50.3-94.9,104-94.9c53.4,0,102,39.7,104,94.9H-62.5z M122.1,295.4
	c21.4-10.3,48.6-22,72.6-22c31.4,0,54.3,21.7,54.3,53.7c0,20-7.4,49-14.6,67.9C208.1,352.7,168.3,313.4,122.1,295.4z"/>
</svg>
