<?xml version="1.0" encoding="utf-8"?>
<!-- Generator: Adobe Illustrator 19.0.0, SVG Export Plug-In . SVG Version: 6.00 Build 0)  -->
<svg version="1.1" id="Calque_1" focusable="false" xmlns="http://www.w3.org/2000/svg" xmlns:xlink="http://www.w3.org/1999/xlink"
	 x="0px" y="0px" viewBox="-243 245 512 512" style="enable-background:new -243 245 512 512;" xml:space="preserve">
<style type="text/css">
	.st0{fill:#FFFFFF;}
</style>
<path class="st0" d="M-171.1,279.8c-21.7,12.9-64.5,62.1-64.9,75v21.3c0,27.1,25.3,50.8,48.2,50.8c27.6,0,50.5-22.9,50.5-50
	c0,27.1,22.2,50,49.8,50s49-22.9,49-50c0,27.1,23.6,50,51.2,50h0.5c27.6,0,51.2-22.9,51.2-50c0,27.1,21.5,50,49,50
	s49.8-22.9,49.8-50c0,27.1,23,50,50.5,50c23,0,48.2-23.8,48.2-50.8v-21.3c-0.4-12.9-43.2-62.1-64.9-75c-67.4-2.3-114.2-2.7-184-2.7
	S-151.9,278.1-171.1,279.8z M-38.8,414.2c-22,38.4-77.9,38.7-99.8,0.2c-13.2,23.1-43.2,32.1-56,27.7
	c-3.9,40.1-13.7,237.1,17.7,269.1c80,18.7,302.1,18.1,379.8,0c31.6-32.3,21.3-232,17.8-269.1c-12.9,4.4-42.9-4.6-56-27.7
	c-22,38.5-77.9,38.1-99.9-0.2c-7.1,12.5-23,28.9-51.8,28.9C-8.3,443.8-28.2,432.6-38.8,414.2L-38.8,414.2z M-80.3,467.9
	c16.5,0,31.1,0,49.2,19.8c29.3-3,58.9-3,88.2,0C75.2,468,89.9,468,106.3,468c52.3,0,65.2,77.5,83.9,144.5
	c17.3,62.1-5.5,63.7-34,63.7c-42.1-1.6-65.5-32.2-65.5-62.8c-39.2,6.4-101.9,8.8-155.6,0c0,30.6-23.3,61.2-65.5,62.8
	c-28.4-0.1-51.2-1.6-33.9-63.7C-145.6,545.5-132.7,468-80.3,467.9L-80.3,467.9z M13,515.8c0,0-44.4,40.8-52.4,55.2l29-1.2v25.3
	c0,1.5,21.3,0.2,23.3,0.2c11.7,0.5,23.3,1,23.3-0.2v-25.3l29,1.2C57.3,556.6,12.9,515.8,13,515.8L13,515.8z"/>
</svg>
