<?xml version="1.0" encoding="utf-8"?>
<!-- Generator: Adobe Illustrator 19.0.0, SVG Export Plug-In . SVG Version: 6.00 Build 0)  -->
<svg version="1.1" id="Calque_1" focusable="false" xmlns="http://www.w3.org/2000/svg" xmlns:xlink="http://www.w3.org/1999/xlink"
	 x="0px" y="0px" viewBox="-251 245 496 512" style="enable-background:new -251 245 496 512;" xml:space="preserve">
<style type="text/css">
	.st0{fill:#FFFFFF;}
</style>
<path class="st0" d="M245,501c0,137-111.2,248-248.4,248c-113.8,0-209.6-76.3-239-180.4l95.2,39.3c6.4,32.1,34.9,56.4,68.9,56.4
	c39.2,0,71.9-32.4,70.2-73.5l84.5-60.2c52.1,1.3,95.8-40.9,95.8-93.5c0-51.6-42-93.5-93.7-93.5s-93.7,42-93.7,93.5v1.2L-74.4,524
	c-15.5-0.9-30.7,3.4-43.5,12.1l-133.1-55C-240.8,353.4-133.9,253-3.4,253C133.8,253,245,364,245,501z M-95.3,629.3l-30.5-12.6
	c5.6,11.6,15.3,20.8,27.2,25.8c26.9,11.2,57.8-1.6,69-28.4c5.4-13,5.5-27.3,0.1-40.3S-45,550.6-58,545.2
	c-12.9-5.4-26.7-5.2-38.9-0.6l31.5,13c19.8,8.2,29.2,30.9,20.9,50.7C-52.8,628.2-75.5,637.5-95.3,629.3z M78.5,499.4
	c-34.4,0-62.4-28-62.4-62.3s28-62.3,62.4-62.3s62.4,28,62.4,62.3S113,499.4,78.5,499.4z M78.6,483.8c25.9,0,46.9-21,46.9-46.8
	c0-25.9-21-46.8-46.9-46.8s-46.9,21-46.9,46.8C31.8,462.8,52.8,483.8,78.6,483.8z"/>
</svg>
